<?xml version="1.0" encoding="iso-8859-1"?>
<!-- Generator: Adobe Illustrator 16.0.0, SVG Export Plug-In . SVG Version: 6.00 Build 0)  -->
<!DOCTYPE svg PUBLIC "-//W3C//DTD SVG 1.1//EN" "http://www.w3.org/Graphics/SVG/1.1/DTD/svg11.dtd">
<svg version="1.1" id="Capa_1" xmlns="http://www.w3.org/2000/svg" xmlns:xlink="http://www.w3.org/1999/xlink" x="0px" y="0px"
	 width="20px" height="20px" viewBox="0 0 725.3 725.301" style="enable-background:new 0 0 725.3 725.301;"
	 xml:space="preserve">
<g>
	<path fill="black" d="M299.188,725.301c-0.202,0-2.158-0.033-2.36-0.033c-20.094-1.248-36.311-10.216-46.257-24.646L66.957,433.596
		c-18.341-26.702-11.564-63.317,15.071-81.658c25.995-17.835,63.924-10.62,81.658,15.104l127.444,185.333L556.571,32.013
		C571,3.76,607.987-8.31,636.273,6.12c14.094,7.181,24.579,19.454,29.468,34.524c4.889,15.07,3.607,31.119-3.607,45.212
		l-309.709,607.28c-0.708,1.382-3.169,4.687-4.214,5.799c-0.405,0.641-1.618,2.091-2.124,2.697
		c-2.63,3.438-6.035,7.586-10.553,11.126c-1.045,1.079-2.293,2.226-3.169,2.832c-3.203,2.158-6.103,3.169-7.822,3.776
		c-4.214,1.922-6.406,2.899-8.833,3.573C310.549,724.525,305.054,725.301,299.188,725.301z M115.304,375.303
		c-5.057,0-9.946,1.517-14.16,4.416c-11.329,7.788-14.194,23.398-6.373,34.761l183.58,266.958
		c5.563,8.092,14.261,9.811,18.948,10.114h1.888c2.562,0,4.788-0.304,7.013-0.978c0.101-0.034,3.304-1.518,3.405-1.551
		c0.876-0.438,2.023-0.877,3.203-1.315c0.303-0.27,0.607-0.539,0.843-0.708c2.326-1.72,3.979-3.742,5.361-5.597
		c2.292-2.967,3.338-4.214,4.417-5.395l308.63-605.493c3.102-6.103,3.642-13.014,1.551-19.487
		c-2.09-6.474-6.608-11.767-12.711-14.869c-12.44-6.338-28.118-1.011-34.355,11.193L308.291,592.901
		c-2.697,5.293-7.99,8.766-13.924,9.17c-6.204,0.337-11.632-2.394-15.003-7.282l-143.492-208.63
		C131.251,379.382,123.531,375.303,115.304,375.303z"/>
</g>
<g>
</g>
<g>
</g>
<g>
</g>
<g>
</g>
<g>
</g>
<g>
</g>
<g>
</g>
<g>
</g>
<g>
</g>
<g>
</g>
<g>
</g>
<g>
</g>
<g>
</g>
<g>
</g>
<g>
</g>
</svg>
